<mxfile host="Electron" agent="Mozilla/5.0 (Windows NT 10.0; Win64; x64) AppleWebKit/537.36 (KHTML, like Gecko) draw.io/26.0.4 Chrome/128.0.6613.186 Electron/32.2.5 Safari/537.36" version="26.0.4">
  <diagram name="Page-1" id="Gxa-6zVmGAe9zltWJPrR">
    <mxGraphModel dx="1195" dy="697" grid="1" gridSize="10" guides="1" tooltips="1" connect="1" arrows="1" fold="1" page="1" pageScale="1" pageWidth="827" pageHeight="1169" math="0" shadow="0">
      <root>
        <mxCell id="0" />
        <mxCell id="1" parent="0" />
        <mxCell id="5bWb_CmUJJjVjKrUw1is-1" value="PORTAIL" style="rounded=0;whiteSpace=wrap;html=1;" parent="1" vertex="1">
          <mxGeometry x="1010" y="150" width="80" height="30" as="geometry" />
        </mxCell>
        <mxCell id="5bWb_CmUJJjVjKrUw1is-4" style="edgeStyle=orthogonalEdgeStyle;rounded=0;orthogonalLoop=1;jettySize=auto;html=1;" parent="1" source="5bWb_CmUJJjVjKrUw1is-2" target="5bWb_CmUJJjVjKrUw1is-3" edge="1">
          <mxGeometry relative="1" as="geometry" />
        </mxCell>
        <mxCell id="5bWb_CmUJJjVjKrUw1is-2" value="RASPBERRY" style="rounded=0;whiteSpace=wrap;html=1;" parent="1" vertex="1">
          <mxGeometry x="761" y="150" width="90" height="30" as="geometry" />
        </mxCell>
        <mxCell id="5bWb_CmUJJjVjKrUw1is-5" style="edgeStyle=orthogonalEdgeStyle;rounded=0;orthogonalLoop=1;jettySize=auto;html=1;entryX=0;entryY=0.5;entryDx=0;entryDy=0;" parent="1" source="5bWb_CmUJJjVjKrUw1is-3" target="5bWb_CmUJJjVjKrUw1is-1" edge="1">
          <mxGeometry relative="1" as="geometry" />
        </mxCell>
        <mxCell id="5bWb_CmUJJjVjKrUw1is-3" value="RELAIS" style="rounded=0;whiteSpace=wrap;html=1;" parent="1" vertex="1">
          <mxGeometry x="890" y="150" width="90" height="30" as="geometry" />
        </mxCell>
        <mxCell id="5bWb_CmUJJjVjKrUw1is-6" value="BOKER MQTT" style="rounded=0;whiteSpace=wrap;html=1;" parent="1" vertex="1">
          <mxGeometry x="570" y="20" width="120" height="60" as="geometry" />
        </mxCell>
        <mxCell id="5bWb_CmUJJjVjKrUw1is-7" value="SITE WEB" style="rounded=0;whiteSpace=wrap;html=1;" parent="1" vertex="1">
          <mxGeometry x="370" y="20" width="120" height="60" as="geometry" />
        </mxCell>
        <mxCell id="5bWb_CmUJJjVjKrUw1is-8" value="BDD" style="whiteSpace=wrap;html=1;" parent="1" vertex="1">
          <mxGeometry x="370" y="170" width="120" height="60" as="geometry" />
        </mxCell>
        <mxCell id="5bWb_CmUJJjVjKrUw1is-18" style="edgeStyle=orthogonalEdgeStyle;rounded=0;orthogonalLoop=1;jettySize=auto;html=1;exitX=0.75;exitY=0;exitDx=0;exitDy=0;entryX=0.5;entryY=1;entryDx=0;entryDy=0;" parent="1" source="5bWb_CmUJJjVjKrUw1is-10" target="5bWb_CmUJJjVjKrUw1is-16" edge="1">
          <mxGeometry relative="1" as="geometry" />
        </mxCell>
        <mxCell id="5bWb_CmUJJjVjKrUw1is-10" value="APPEL GSM" style="whiteSpace=wrap;html=1;" parent="1" vertex="1">
          <mxGeometry x="720" y="310" width="80" height="40" as="geometry" />
        </mxCell>
        <mxCell id="5bWb_CmUJJjVjKrUw1is-19" style="edgeStyle=orthogonalEdgeStyle;rounded=0;orthogonalLoop=1;jettySize=auto;html=1;exitX=0.25;exitY=0;exitDx=0;exitDy=0;entryX=0.588;entryY=1;entryDx=0;entryDy=0;entryPerimeter=0;" parent="1" source="5bWb_CmUJJjVjKrUw1is-11" target="5bWb_CmUJJjVjKrUw1is-16" edge="1">
          <mxGeometry relative="1" as="geometry" />
        </mxCell>
        <mxCell id="5bWb_CmUJJjVjKrUw1is-11" value="ENVOIE SMS" style="whiteSpace=wrap;html=1;" parent="1" vertex="1">
          <mxGeometry x="816" y="310" width="96" height="40" as="geometry" />
        </mxCell>
        <mxCell id="5bWb_CmUJJjVjKrUw1is-13" value="" style="shape=flexArrow;endArrow=classic;startArrow=classic;html=1;rounded=0;entryX=0;entryY=0;entryDx=0;entryDy=0;exitX=1;exitY=1;exitDx=0;exitDy=0;" parent="1" source="5bWb_CmUJJjVjKrUw1is-6" target="5bWb_CmUJJjVjKrUw1is-2" edge="1">
          <mxGeometry width="100" height="100" relative="1" as="geometry">
            <mxPoint x="650" y="230" as="sourcePoint" />
            <mxPoint x="750" y="130" as="targetPoint" />
          </mxGeometry>
        </mxCell>
        <mxCell id="5bWb_CmUJJjVjKrUw1is-15" value="" style="endArrow=classic;startArrow=classic;html=1;rounded=0;entryX=0.5;entryY=1;entryDx=0;entryDy=0;exitX=0.5;exitY=0;exitDx=0;exitDy=0;" parent="1" source="5bWb_CmUJJjVjKrUw1is-8" target="5bWb_CmUJJjVjKrUw1is-7" edge="1">
          <mxGeometry width="50" height="50" relative="1" as="geometry">
            <mxPoint x="310" y="190" as="sourcePoint" />
            <mxPoint x="360" y="140" as="targetPoint" />
          </mxGeometry>
        </mxCell>
        <mxCell id="5bWb_CmUJJjVjKrUw1is-20" value="" style="edgeStyle=orthogonalEdgeStyle;rounded=0;orthogonalLoop=1;jettySize=auto;html=1;" parent="1" source="5bWb_CmUJJjVjKrUw1is-16" target="5bWb_CmUJJjVjKrUw1is-2" edge="1">
          <mxGeometry relative="1" as="geometry" />
        </mxCell>
        <mxCell id="5bWb_CmUJJjVjKrUw1is-16" value="MODEM" style="whiteSpace=wrap;html=1;" parent="1" vertex="1">
          <mxGeometry x="766" y="230" width="80" height="40" as="geometry" />
        </mxCell>
        <mxCell id="5bWb_CmUJJjVjKrUw1is-22" value="" style="endArrow=classic;startArrow=classic;html=1;rounded=0;exitX=0.5;exitY=1;exitDx=0;exitDy=0;entryX=1;entryY=0.5;entryDx=0;entryDy=0;" parent="1" source="5bWb_CmUJJjVjKrUw1is-2" target="5bWb_CmUJJjVjKrUw1is-8" edge="1">
          <mxGeometry width="50" height="50" relative="1" as="geometry">
            <mxPoint x="660" y="250" as="sourcePoint" />
            <mxPoint x="520" y="200" as="targetPoint" />
            <Array as="points">
              <mxPoint x="770" y="200" />
            </Array>
          </mxGeometry>
        </mxCell>
        <mxCell id="5bWb_CmUJJjVjKrUw1is-23" value="" style="endArrow=classic;startArrow=classic;html=1;rounded=0;entryX=0;entryY=0.5;entryDx=0;entryDy=0;exitX=1;exitY=0.5;exitDx=0;exitDy=0;" parent="1" source="5bWb_CmUJJjVjKrUw1is-7" target="5bWb_CmUJJjVjKrUw1is-6" edge="1">
          <mxGeometry width="50" height="50" relative="1" as="geometry">
            <mxPoint x="500" y="150" as="sourcePoint" />
            <mxPoint x="550" y="100" as="targetPoint" />
          </mxGeometry>
        </mxCell>
        <mxCell id="3PYkQlMhbyMdqEdJkhHJ-4" style="edgeStyle=orthogonalEdgeStyle;rounded=0;orthogonalLoop=1;jettySize=auto;html=1;entryX=0;entryY=0.5;entryDx=0;entryDy=0;" edge="1" parent="1" source="3PYkQlMhbyMdqEdJkhHJ-1" target="3PYkQlMhbyMdqEdJkhHJ-2">
          <mxGeometry relative="1" as="geometry" />
        </mxCell>
        <mxCell id="3PYkQlMhbyMdqEdJkhHJ-9" value="" style="edgeStyle=orthogonalEdgeStyle;rounded=0;orthogonalLoop=1;jettySize=auto;html=1;" edge="1" parent="1" source="3PYkQlMhbyMdqEdJkhHJ-1" target="3PYkQlMhbyMdqEdJkhHJ-8">
          <mxGeometry relative="1" as="geometry" />
        </mxCell>
        <mxCell id="3PYkQlMhbyMdqEdJkhHJ-15" value="" style="edgeStyle=orthogonalEdgeStyle;rounded=0;orthogonalLoop=1;jettySize=auto;html=1;" edge="1" parent="1" source="3PYkQlMhbyMdqEdJkhHJ-1" target="3PYkQlMhbyMdqEdJkhHJ-14">
          <mxGeometry relative="1" as="geometry" />
        </mxCell>
        <mxCell id="3PYkQlMhbyMdqEdJkhHJ-27" value="" style="edgeStyle=orthogonalEdgeStyle;rounded=0;orthogonalLoop=1;jettySize=auto;html=1;" edge="1" parent="1" source="3PYkQlMhbyMdqEdJkhHJ-1" target="3PYkQlMhbyMdqEdJkhHJ-26">
          <mxGeometry relative="1" as="geometry" />
        </mxCell>
        <mxCell id="3PYkQlMhbyMdqEdJkhHJ-1" value="PI" style="ellipse;whiteSpace=wrap;html=1;" vertex="1" parent="1">
          <mxGeometry x="420" y="690" width="120" height="80" as="geometry" />
        </mxCell>
        <mxCell id="3PYkQlMhbyMdqEdJkhHJ-2" value="Page web (lien bdd)" style="rounded=0;whiteSpace=wrap;html=1;" vertex="1" parent="1">
          <mxGeometry x="707" y="700" width="120" height="60" as="geometry" />
        </mxCell>
        <mxCell id="3PYkQlMhbyMdqEdJkhHJ-3" value="Verification des droit sur la BDD" style="rounded=0;whiteSpace=wrap;html=1;" vertex="1" parent="1">
          <mxGeometry x="707" y="790" width="120" height="60" as="geometry" />
        </mxCell>
        <mxCell id="3PYkQlMhbyMdqEdJkhHJ-5" value="" style="endArrow=classic;html=1;rounded=0;exitX=1;exitY=0.75;exitDx=0;exitDy=0;entryX=1;entryY=0.25;entryDx=0;entryDy=0;" edge="1" parent="1" source="3PYkQlMhbyMdqEdJkhHJ-2" target="3PYkQlMhbyMdqEdJkhHJ-3">
          <mxGeometry width="50" height="50" relative="1" as="geometry">
            <mxPoint x="840" y="760" as="sourcePoint" />
            <mxPoint x="860" y="840" as="targetPoint" />
            <Array as="points">
              <mxPoint x="860" y="745" />
              <mxPoint x="860" y="805" />
            </Array>
          </mxGeometry>
        </mxCell>
        <mxCell id="3PYkQlMhbyMdqEdJkhHJ-6" value="" style="endArrow=classic;html=1;rounded=0;exitX=1;exitY=0.75;exitDx=0;exitDy=0;entryX=1;entryY=0.25;entryDx=0;entryDy=0;" edge="1" parent="1" source="3PYkQlMhbyMdqEdJkhHJ-3" target="3PYkQlMhbyMdqEdJkhHJ-2">
          <mxGeometry width="50" height="50" relative="1" as="geometry">
            <mxPoint x="890" y="840" as="sourcePoint" />
            <mxPoint x="940" y="790" as="targetPoint" />
            <Array as="points">
              <mxPoint x="880" y="835" />
              <mxPoint x="880" y="715" />
            </Array>
          </mxGeometry>
        </mxCell>
        <mxCell id="3PYkQlMhbyMdqEdJkhHJ-7" value="Ouverture de page php&lt;div&gt;pour verif droits&lt;/div&gt;" style="text;html=1;align=center;verticalAlign=middle;resizable=0;points=[];autosize=1;strokeColor=none;fillColor=none;" vertex="1" parent="1">
          <mxGeometry x="535" y="690" width="150" height="40" as="geometry" />
        </mxCell>
        <mxCell id="3PYkQlMhbyMdqEdJkhHJ-8" value="MODEM" style="rounded=0;whiteSpace=wrap;html=1;" vertex="1" parent="1">
          <mxGeometry x="430" y="570" width="100" height="40" as="geometry" />
        </mxCell>
        <mxCell id="3PYkQlMhbyMdqEdJkhHJ-10" value="Attente d&#39;appel" style="text;html=1;align=center;verticalAlign=middle;resizable=0;points=[];autosize=1;strokeColor=none;fillColor=none;" vertex="1" parent="1">
          <mxGeometry x="380" y="660" width="100" height="30" as="geometry" />
        </mxCell>
        <mxCell id="3PYkQlMhbyMdqEdJkhHJ-12" value="" style="edgeStyle=orthogonalEdgeStyle;rounded=0;orthogonalLoop=1;jettySize=auto;html=1;" edge="1" parent="1" source="3PYkQlMhbyMdqEdJkhHJ-11" target="3PYkQlMhbyMdqEdJkhHJ-8">
          <mxGeometry relative="1" as="geometry" />
        </mxCell>
        <mxCell id="3PYkQlMhbyMdqEdJkhHJ-13" value="" style="edgeStyle=orthogonalEdgeStyle;rounded=0;orthogonalLoop=1;jettySize=auto;html=1;" edge="1" parent="1" source="3PYkQlMhbyMdqEdJkhHJ-11" target="3PYkQlMhbyMdqEdJkhHJ-8">
          <mxGeometry relative="1" as="geometry" />
        </mxCell>
        <mxCell id="3PYkQlMhbyMdqEdJkhHJ-11" value="Appel&lt;br&gt;06 ..&lt;span style=&quot;background-color: transparent; color: light-dark(rgb(0, 0, 0), rgb(255, 255, 255));&quot;&gt;&amp;nbsp;.. .. ..&amp;nbsp;&lt;/span&gt;" style="shape=umlActor;verticalLabelPosition=bottom;verticalAlign=top;html=1;outlineConnect=0;" vertex="1" parent="1">
          <mxGeometry x="465" y="430" width="30" height="60" as="geometry" />
        </mxCell>
        <mxCell id="3PYkQlMhbyMdqEdJkhHJ-14" value="BROKER MQTT" style="rounded=0;whiteSpace=wrap;html=1;" vertex="1" parent="1">
          <mxGeometry x="420" y="860" width="120" height="60" as="geometry" />
        </mxCell>
        <mxCell id="3PYkQlMhbyMdqEdJkhHJ-16" value="abonnée au topic :&amp;nbsp;&lt;br&gt;/portail/status" style="text;html=1;align=center;verticalAlign=middle;resizable=0;points=[];autosize=1;strokeColor=none;fillColor=none;" vertex="1" parent="1">
          <mxGeometry x="470" y="780" width="130" height="40" as="geometry" />
        </mxCell>
        <mxCell id="3PYkQlMhbyMdqEdJkhHJ-18" value="" style="edgeStyle=orthogonalEdgeStyle;rounded=0;orthogonalLoop=1;jettySize=auto;html=1;" edge="1" parent="1" source="3PYkQlMhbyMdqEdJkhHJ-17" target="3PYkQlMhbyMdqEdJkhHJ-14">
          <mxGeometry relative="1" as="geometry" />
        </mxCell>
        <mxCell id="3PYkQlMhbyMdqEdJkhHJ-22" value="" style="edgeStyle=orthogonalEdgeStyle;rounded=0;orthogonalLoop=1;jettySize=auto;html=1;" edge="1" parent="1" source="3PYkQlMhbyMdqEdJkhHJ-17" target="3PYkQlMhbyMdqEdJkhHJ-21">
          <mxGeometry relative="1" as="geometry" />
        </mxCell>
        <mxCell id="3PYkQlMhbyMdqEdJkhHJ-17" value="Acces par le site web" style="rounded=1;whiteSpace=wrap;html=1;" vertex="1" parent="1">
          <mxGeometry x="420" y="980" width="120" height="60" as="geometry" />
        </mxCell>
        <mxCell id="3PYkQlMhbyMdqEdJkhHJ-19" value="Publish sur le topic :&amp;nbsp;&lt;div&gt;/portail/status&lt;/div&gt;" style="text;html=1;align=center;verticalAlign=middle;resizable=0;points=[];autosize=1;strokeColor=none;fillColor=none;" vertex="1" parent="1">
          <mxGeometry x="470" y="930" width="130" height="40" as="geometry" />
        </mxCell>
        <mxCell id="3PYkQlMhbyMdqEdJkhHJ-24" value="" style="edgeStyle=orthogonalEdgeStyle;rounded=0;orthogonalLoop=1;jettySize=auto;html=1;" edge="1" parent="1" source="3PYkQlMhbyMdqEdJkhHJ-21" target="3PYkQlMhbyMdqEdJkhHJ-23">
          <mxGeometry relative="1" as="geometry" />
        </mxCell>
        <mxCell id="3PYkQlMhbyMdqEdJkhHJ-21" value="Page Admin&lt;br&gt;du site web&lt;br&gt;connection avec mdp" style="rounded=1;whiteSpace=wrap;html=1;" vertex="1" parent="1">
          <mxGeometry x="260" y="980" width="120" height="60" as="geometry" />
        </mxCell>
        <mxCell id="3PYkQlMhbyMdqEdJkhHJ-23" value="Acces a la BDD pour :&lt;br&gt;ajout user etc..." style="rounded=0;whiteSpace=wrap;html=1;" vertex="1" parent="1">
          <mxGeometry x="90" y="980" width="130" height="60" as="geometry" />
        </mxCell>
        <mxCell id="3PYkQlMhbyMdqEdJkhHJ-25" value="OUVERTURE DU PORTAIL" style="rhombus;whiteSpace=wrap;html=1;" vertex="1" parent="1">
          <mxGeometry x="30" y="585" width="130" height="130" as="geometry" />
        </mxCell>
        <mxCell id="3PYkQlMhbyMdqEdJkhHJ-28" value="" style="edgeStyle=orthogonalEdgeStyle;rounded=0;orthogonalLoop=1;jettySize=auto;html=1;" edge="1" parent="1" source="3PYkQlMhbyMdqEdJkhHJ-26" target="3PYkQlMhbyMdqEdJkhHJ-25">
          <mxGeometry relative="1" as="geometry" />
        </mxCell>
        <mxCell id="3PYkQlMhbyMdqEdJkhHJ-26" value="Actionnement relais" style="rounded=0;whiteSpace=wrap;html=1;" vertex="1" parent="1">
          <mxGeometry x="210" y="620" width="120" height="60" as="geometry" />
        </mxCell>
        <mxCell id="3PYkQlMhbyMdqEdJkhHJ-33" style="edgeStyle=orthogonalEdgeStyle;rounded=0;orthogonalLoop=1;jettySize=auto;html=1;entryX=0;entryY=1;entryDx=0;entryDy=0;" edge="1" parent="1" source="3PYkQlMhbyMdqEdJkhHJ-30" target="3PYkQlMhbyMdqEdJkhHJ-1">
          <mxGeometry relative="1" as="geometry">
            <Array as="points">
              <mxPoint x="400" y="820" />
              <mxPoint x="400" y="758" />
            </Array>
          </mxGeometry>
        </mxCell>
        <mxCell id="3PYkQlMhbyMdqEdJkhHJ-30" value="&lt;h1 style=&quot;margin-top: 0px;&quot;&gt;Action&lt;/h1&gt;&lt;div&gt;Attende de changement sur le broker.&lt;/div&gt;&lt;div&gt;&lt;br&gt;&lt;/div&gt;&lt;div&gt;si appel ou sms :&amp;nbsp;&lt;br&gt;Ouverture de page php du site pour verifier les info du numero et retour de la BDD si autorisé a ouvrir le portail&lt;/div&gt;&lt;div&gt;&lt;br&gt;&lt;/div&gt;" style="text;html=1;whiteSpace=wrap;overflow=hidden;rounded=0;" vertex="1" parent="1">
          <mxGeometry x="90" y="750" width="220" height="140" as="geometry" />
        </mxCell>
      </root>
    </mxGraphModel>
  </diagram>
</mxfile>
